# Rhino

mtllib 02.mtl
usemtl diffuse_0
v -0.5 2 0.5
v -0.5 3 0.5
v 0.5 2 0.5
v 0.5 3 0.5
v 0.5 2 -0.5
v 0.5 3 -0.5
v -0.5 2 -0.5
v -0.5 3 -0.5
v -0.5 2 0.5
v -0.5 2 -0.5
v 0.5 2 0.5
v 0.5 2 -0.5
v -0.5 3 0.5
v -0.5 3 -0.5
v 0.5 3 0.5
v 0.5 3 -0.5
v 0.5 2 0.5
v 0.5 3 0.5
v 1.5 2 0.5
v 1.5 3 0.5
v 1.5 2 0.5
v 1.5 3 0.5
v 1.5 2 -0.5
v 1.5 3 -0.5
v 0.5 2 0.5
v 0.5 2 -0.5
v 1.5 2 0.5
v 1.5 2 -0.5
v 0.5 3 0.5
v 0.5 3 -0.5
v 1.5 3 0.5
v 1.5 3 -0.5
v 1.5 2 -0.5
v 1.5 3 -0.5
v 1.5 2 -1.5
v 1.5 3 -1.5
v 1.5 2 -1.5
v 1.5 3 -1.5
v 0.5 2 -1.5
v 0.5 3 -1.5
v 0.5 2 -1.5
v 0.5 3 -1.5
v 0.5 2 -0.5
v 0.5 3 -0.5
v 0.5 2 -0.5
v 0.5 2 -1.5
v 1.5 2 -0.5
v 1.5 2 -1.5
v 0.5 3 -0.5
v 0.5 3 -1.5
v 1.5 3 -0.5
v 1.5 3 -1.5
v -1.5 2 0.5
v -1.5 3 0.5
v -0.5 2 0.5
v -0.5 3 0.5
v -1.5 2 -0.5
v -1.5 3 -0.5
v -1.5 2 0.5
v -1.5 3 0.5
v -1.5 2 0.5
v -1.5 2 -0.5
v -0.5 2 0.5
v -0.5 2 -0.5
v -1.5 3 0.5
v -1.5 3 -0.5
v -0.5 3 0.5
v -0.5 3 -0.5
v -0.5 2 -0.5
v -0.5 3 -0.5
v -0.5 2 -1.5
v -0.5 3 -1.5
v -0.5 2 -1.5
v -0.5 3 -1.5
v -1.5 2 -1.5
v -1.5 3 -1.5
v -1.5 2 -1.5
v -1.5 3 -1.5
v -1.5 2 -0.5
v -1.5 3 -0.5
v -1.5 2 -0.5
v -1.5 2 -1.5
v -0.5 2 -0.5
v -0.5 2 -1.5
v -1.5 3 -0.5
v -1.5 3 -1.5
v -0.5 3 -0.5
v -0.5 3 -1.5
vt 0.83333331346511841 0.3333333432674408
vt 0.83333331346511841 0.49853515625
vt 0.99853515625 0.3333333432674408
vt 0.99853515625 0.49853515625
vt 0.66666668653488159 0.3333333432674408
vt 0.66666668653488159 0.49853515625
vt 0.83186846971511841 0.3333333432674408
vt 0.83186846971511841 0.49853515625
vt 0.83333331346511841 0.5
vt 0.83333331346511841 0.66520184278488159
vt 0.99853515625 0.5
vt 0.99853515625 0.66520184278488159
vt 0.66666668653488159 0.5
vt 0.66666668653488159 0.66520184278488159
vt 0.83186846971511841 0.5
vt 0.83186846971511841 0.66520184278488159
vt 0.83333331346511841 0
vt 0.83333331346511841 0.1652018278837204
vt 0.99853515625 0
vt 0.99853515625 0.1652018278837204
vt 0.66666668653488159 0
vt 0.66666668653488159 0.1652018278837204
vt 0.83186846971511841 0
vt 0.83186846971511841 0.1652018278837204
vt 0.83333331346511841 0.1666666716337204
vt 0.83333331346511841 0.3318684995174408
vt 0.99853515625 0.1666666716337204
vt 0.99853515625 0.3318684995174408
vt 0.66666668653488159 0.1666666716337204
vt 0.66666668653488159 0.3318684995174408
vt 0.83186846971511841 0.1666666716337204
vt 0.83186846971511841 0.3318684995174408
vt 0.1666666716337204 0.3333333432674408
vt 0.1666666716337204 0.49853515625
vt 0.3318684995174408 0.3333333432674408
vt 0.3318684995174408 0.49853515625
vt 0 0.3333333432674408
vt 0 0.49853515625
vt 0.1652018278837204 0.3333333432674408
vt 0.1652018278837204 0.49853515625
vt 0.1666666716337204 0.5
vt 0.1666666716337204 0.66520184278488159
vt 0.3318684995174408 0.5
vt 0.3318684995174408 0.66520184278488159
vt 0 0.5
vt 0 0.66520184278488159
vt 0.1652018278837204 0.5
vt 0.1652018278837204 0.66520184278488159
vt 0.1666666716337204 0
vt 0.1666666716337204 0.1652018278837204
vt 0.3318684995174408 0
vt 0.3318684995174408 0.1652018278837204
vt 0 0
vt 0 0.1652018278837204
vt 0.1652018278837204 0
vt 0.1652018278837204 0.1652018278837204
vt 0.1666666716337204 0.1666666716337204
vt 0.1666666716337204 0.3318684995174408
vt 0.3318684995174408 0.1666666716337204
vt 0.3318684995174408 0.3318684995174408
vt 0 0.1666666716337204
vt 0 0.3318684995174408
vt 0.1652018278837204 0.1666666716337204
vt 0.1652018278837204 0.3318684995174408
vt 0.5 0.2222222238779068
vt 0.5 0.3888888955116272
vt 0.66520184278488159 0.2222222238779068
vt 0.66520184278488159 0.3888888955116272
vt 0.3333333432674408 0.2222222238779068
vt 0.3333333432674408 0.3888888955116272
vt 0.49853515625 0.2222222238779068
vt 0.49853515625 0.3888888955116272
vt 0.5 0.4444444477558136
vt 0.5 0.6111111044883728
vt 0.66520184278488159 0.4444444477558136
vt 0.66520184278488159 0.6111111044883728
vt 0.3333333432674408 0.4444444477558136
vt 0.3333333432674408 0.6111111044883728
vt 0.49853515625 0.4444444477558136
vt 0.49853515625 0.6111111044883728
vt 0.5 0
vt 0.5 0.1666666716337204
vt 0.66520184278488159 0
vt 0.66520184278488159 0.1666666716337204
vt 0.3333333432674408 0
vt 0.3333333432674408 0.1666666716337204
vt 0.49853515625 0
vt 0.49853515625 0.1666666716337204
vn 0 0 1
vn 0 0 1
vn 0 0 1
vn 0 0 1
vn 0 0 -1
vn 0 0 -1
vn 0 0 -1
vn 0 0 -1
vn 0 -1 0
vn 0 -1 0
vn 0 -1 0
vn 0 -1 0
vn 0 1 0
vn 0 1 0
vn 0 1 0
vn 0 1 0
vn 0 0 1
vn 0 0 1
vn 0 0 1
vn 0 0 1
vn 1 0 0
vn 1 0 0
vn 1 0 0
vn 1 0 0
vn 0 -1 0
vn 0 -1 0
vn 0 -1 0
vn 0 -1 0
vn 0 1 0
vn 0 1 0
vn 0 1 0
vn 0 1 0
vn 1 0 0
vn 1 0 0
vn 1 0 0
vn 1 0 0
vn 0 0 -1
vn 0 0 -1
vn 0 0 -1
vn 0 0 -1
vn -1 0 0
vn -1 0 0
vn -1 0 0
vn -1 0 0
vn 0 -1 0
vn 0 -1 0
vn 0 -1 0
vn 0 -1 0
vn 0 1 0
vn 0 1 0
vn 0 1 0
vn 0 1 0
vn 0 0 1
vn 0 0 1
vn 0 0 1
vn 0 0 1
vn -1 0 0
vn -1 0 0
vn -1 0 0
vn -1 0 0
vn 0 -1 0
vn 0 -1 0
vn 0 -1 0
vn 0 -1 0
vn 0 1 0
vn 0 1 0
vn 0 1 0
vn 0 1 0
vn 1 0 0
vn 1 0 0
vn 1 0 0
vn 1 0 0
vn 0 0 -1
vn 0 0 -1
vn 0 0 -1
vn 0 0 -1
vn -1 0 0
vn -1 0 0
vn -1 0 0
vn -1 0 0
vn 0 -1 0
vn 0 -1 0
vn 0 -1 0
vn 0 -1 0
vn 0 1 0
vn 0 1 0
vn 0 1 0
vn 0 1 0
f 2/2/2 1/1/1 3/3/3 4/4/4
f 6/6/6 5/5/5 7/7/7 8/8/8
f 10/10/10 12/12/12 11/11/11 9/9/9
f 14/14/14 13/13/13 15/15/15 16/16/16
f 18/18/18 17/17/17 19/19/19 20/20/20
f 22/22/22 21/21/21 23/23/23 24/24/24
f 26/26/26 28/28/28 27/27/27 25/25/25
f 30/30/30 29/29/29 31/31/31 32/32/32
f 34/34/34 33/33/33 35/35/35 36/36/36
f 38/38/38 37/37/37 39/39/39 40/40/40
f 42/42/42 41/41/41 43/43/43 44/44/44
f 46/46/46 48/48/48 47/47/47 45/45/45
f 50/50/50 49/49/49 51/51/51 52/52/52
f 54/54/54 53/53/53 55/55/55 56/56/56
f 58/58/58 57/57/57 59/59/59 60/60/60
f 62/62/62 64/64/64 63/63/63 61/61/61
f 66/66/66 65/65/65 67/67/67 68/68/68
f 70/70/70 69/69/69 71/71/71 72/72/72
f 74/74/74 73/73/73 75/75/75 76/76/76
f 78/78/78 77/77/77 79/79/79 80/80/80
f 82/82/82 84/84/84 83/83/83 81/81/81
f 86/86/86 85/85/85 87/87/87 88/88/88
